<svg width="116" height="36" viewBox="0 0 116 36" fill="none" xmlns="http://www.w3.org/2000/svg">
<path fill-rule="evenodd" clip-rule="evenodd" d="M17.7761 35.5522C27.5936 35.5522 35.5522 27.5936 35.5522 17.7761C35.5522 7.95864 27.5936 0 17.7761 0C7.95864 0 0 7.95864 0 17.7761C0 27.5936 7.95864 35.5522 17.7761 35.5522ZM17.7761 29.8582C24.4489 29.8582 29.8582 24.4489 29.8582 17.7761C29.8582 11.1034 24.4489 5.69404 17.7761 5.69404C11.1034 5.69404 5.69404 11.1034 5.69404 17.7761C5.69404 24.4489 11.1034 29.8582 17.7761 29.8582Z" fill="white"/>
<path d="M15.4268 13.9354C15.4268 15.4642 14.191 16.7035 12.6665 16.7035C11.1421 16.7035 9.90625 15.4642 9.90625 13.9354C9.90625 12.4066 11.1421 11.1672 12.6665 11.1672C14.191 11.1672 15.4268 12.4066 15.4268 13.9354Z" fill="white"/>
<path fill-rule="evenodd" clip-rule="evenodd" d="M11.8602 17.7379C9.39497 17.7379 7.39648 19.7364 7.39648 22.2017V29.8603H16.1151V24.0927C16.1151 22.6264 16.8221 21.3252 17.9138 20.5114C17.2476 18.8842 15.6483 17.7379 13.7812 17.7379H11.8602Z" fill="white"/>
<path d="M17.3027 24.4796C17.3027 22.0144 19.3012 20.0159 21.7665 20.0159H23.675C26.1403 20.0159 28.1388 22.0144 28.1388 24.4796V32.1295H17.3027V24.4796Z" fill="white"/>
<path d="M25.4894 16.2699C25.4894 17.7987 24.2501 19.038 22.7213 19.038C21.1925 19.038 19.9531 17.7987 19.9531 16.2699C19.9531 14.7411 21.1925 13.5017 22.7213 13.5017C24.2501 13.5017 25.4894 14.7411 25.4894 16.2699Z" fill="white"/>
<path d="M15.4258 25.3472L18.0441 27.1532V31.4986H15.4258V25.3472Z" fill="white"/>
<path d="M56.2089 10.298C56.2089 11.382 56.0249 12.3877 55.6567 13.3149C55.2954 14.2421 54.7806 15.0432 54.1125 15.7181C53.4512 16.3931 52.6535 16.9249 51.7195 17.3135C50.7854 17.6953 49.7491 17.8862 48.6106 17.8862C47.472 17.8862 46.4357 17.6953 45.5017 17.3135C44.5676 16.9249 43.7666 16.3931 43.0984 15.7181C42.4303 15.0432 41.9121 14.2421 41.544 13.3149C41.1826 12.3877 41.002 11.382 41.002 10.298C41.002 9.214 41.1826 8.21179 41.544 7.29139C41.9121 6.36418 42.4303 5.56309 43.0984 4.88814C43.7666 4.21318 44.5676 3.6848 45.5017 3.30301C46.4357 2.9144 47.472 2.72009 48.6106 2.72009C49.7491 2.72009 50.7854 2.9144 51.7195 3.30301C52.6535 3.6848 53.4512 4.21659 54.1125 4.89836C54.7806 5.57332 55.2954 6.37441 55.6567 7.30162C56.0249 8.22202 56.2089 9.22082 56.2089 10.298ZM53.0694 10.298C53.0694 9.5208 52.9671 8.82539 52.7626 8.21179C52.558 7.59137 52.2615 7.06641 51.8729 6.63689C51.4911 6.20055 51.024 5.86989 50.4718 5.64491C49.9264 5.4131 49.306 5.2972 48.6106 5.2972C47.9152 5.2972 47.2913 5.4131 46.7391 5.64491C46.1869 5.86989 45.7164 6.20055 45.3278 6.63689C44.946 7.06641 44.6529 7.59137 44.4483 8.21179C44.2438 8.82539 44.1415 9.5208 44.1415 10.298C44.1415 11.0821 44.2438 11.7843 44.4483 12.4047C44.6529 13.0183 44.946 13.5399 45.3278 13.9694C45.7164 14.3989 46.1869 14.7296 46.7391 14.9614C47.2913 15.1863 47.9152 15.2988 48.6106 15.2988C49.306 15.2988 49.9264 15.1863 50.4718 14.9614C51.024 14.7296 51.4911 14.3989 51.8729 13.9694C52.2615 13.5399 52.558 13.0183 52.7626 12.4047C52.9671 11.7843 53.0694 11.0821 53.0694 10.298Z" fill="white"/>
<path d="M68.533 5.72672C68.4375 5.88353 68.3387 5.99943 68.2364 6.07443C68.141 6.1426 68.0148 6.17669 67.858 6.17669C67.708 6.17669 67.5444 6.12556 67.3671 6.02329C67.1967 5.91421 66.9956 5.79831 66.7638 5.67559C66.532 5.55287 66.2661 5.44037 65.9661 5.33811C65.6661 5.22902 65.315 5.17448 64.9128 5.17448C64.2037 5.17448 63.6719 5.3347 63.3174 5.65513C62.9629 5.96875 62.7856 6.38122 62.7856 6.89256C62.7856 7.21981 62.8811 7.49252 63.072 7.71068C63.2697 7.92203 63.5253 8.10611 63.839 8.26292C64.1594 8.41973 64.5207 8.55949 64.923 8.68221C65.3252 8.80493 65.7377 8.94129 66.1604 9.09128C66.5831 9.23445 66.9956 9.4049 67.3978 9.60261C67.8001 9.80032 68.158 10.0492 68.4716 10.3492C68.7921 10.6491 69.0477 11.0173 69.2386 11.4536C69.4363 11.8831 69.5352 12.4081 69.5352 13.0285C69.5352 13.7035 69.4159 14.3375 69.1773 14.9307C68.9455 15.517 68.608 16.0317 68.1648 16.4749C67.7217 16.9112 67.1728 17.2555 66.5183 17.5078C65.8706 17.76 65.1343 17.8862 64.3094 17.8862C63.839 17.8862 63.3685 17.8384 62.8981 17.743C62.4345 17.6476 61.9845 17.5146 61.5482 17.3442C61.1187 17.1737 60.713 16.9692 60.3312 16.7306C59.9494 16.4919 59.6154 16.2261 59.329 15.9329L60.229 14.4807C60.304 14.3716 60.4028 14.283 60.5255 14.2148C60.6483 14.1398 60.7778 14.1023 60.9141 14.1023C61.0982 14.1023 61.2925 14.1705 61.4971 14.3069C61.7016 14.4432 61.9368 14.5932 62.2027 14.7568C62.4686 14.9205 62.7754 15.0704 63.1231 15.2068C63.4776 15.3432 63.9003 15.4113 64.3912 15.4113C65.1071 15.4113 65.6593 15.2477 66.0479 14.9205C66.4433 14.5932 66.6411 14.1057 66.6411 13.458C66.6411 13.0831 66.5422 12.7797 66.3445 12.5479C66.1536 12.3161 65.9013 12.1218 65.5877 11.965C65.2741 11.8082 64.9162 11.6752 64.5139 11.5661C64.1117 11.4502 63.6992 11.3241 63.2765 11.1877C62.8538 11.0514 62.4413 10.8878 62.0391 10.6969C61.6368 10.506 61.2789 10.2537 60.9653 9.94009C60.6517 9.62647 60.396 9.23786 60.1983 8.77425C60.0074 8.31065 59.9119 7.73455 59.9119 7.04595C59.9119 6.49372 60.021 5.95852 60.2392 5.44037C60.4574 4.92223 60.7778 4.46203 61.2005 4.05978C61.6232 3.65753 62.1413 3.33369 62.7549 3.08825C63.3754 2.84281 64.0844 2.72009 64.8821 2.72009C65.7752 2.72009 66.6001 2.85986 67.3569 3.13938C68.1205 3.41209 68.7648 3.79389 69.2897 4.28477L68.533 5.72672Z" fill="white"/>
<path d="M76.8939 17.7225H73.8054V2.88372H76.8939V17.7225Z" fill="white"/>
<path d="M86.6856 9.90941C87.1832 9.90941 87.6128 9.84805 87.9741 9.72533C88.3354 9.59579 88.632 9.42194 88.8638 9.20377C89.0956 8.97879 89.2661 8.7163 89.3752 8.41632C89.4842 8.11634 89.5388 7.78909 89.5388 7.43457C89.5388 6.73234 89.3036 6.18692 88.8331 5.79831C88.3695 5.4097 87.6605 5.21539 86.706 5.21539H85.1107V9.90941H86.6856ZM93.8749 17.7225H91.1035C90.5853 17.7225 90.2103 17.5248 89.9785 17.1294L87.156 12.5786C87.0401 12.4013 86.9105 12.2718 86.7674 12.1899C86.631 12.1081 86.4265 12.0672 86.1538 12.0672H85.1107V17.7225H82.0427V2.88372H86.706C87.7423 2.88372 88.6286 2.9928 89.3649 3.21097C90.1012 3.42232 90.7046 3.71889 91.175 4.10069C91.6455 4.48248 91.9898 4.93927 92.2079 5.47105C92.4261 5.99602 92.5352 6.57553 92.5352 7.20958C92.5352 7.70046 92.4636 8.16747 92.3204 8.61063C92.1841 9.04696 91.9829 9.4458 91.7171 9.80714C91.4512 10.1685 91.1239 10.4889 90.7353 10.7684C90.3467 11.048 89.9035 11.273 89.4058 11.4434C89.6035 11.5525 89.7876 11.6854 89.9581 11.8422C90.1285 11.9922 90.2819 12.1729 90.4183 12.3843L93.8749 17.7225Z" fill="white"/>
<path d="M100.459 17.7225H97.3706V2.88372H100.459V17.7225Z" fill="white"/>
<path d="M113.646 5.72672C113.551 5.88353 113.452 5.99943 113.349 6.07443C113.254 6.1426 113.128 6.17669 112.971 6.17669C112.821 6.17669 112.657 6.12556 112.48 6.02329C112.31 5.91421 112.109 5.79831 111.877 5.67559C111.645 5.55287 111.379 5.44037 111.079 5.33811C110.779 5.22902 110.428 5.17448 110.026 5.17448C109.317 5.17448 108.785 5.3347 108.43 5.65513C108.076 5.96875 107.899 6.38122 107.899 6.89256C107.899 7.21981 107.994 7.49252 108.185 7.71068C108.383 7.92203 108.638 8.10611 108.952 8.26292C109.272 8.41973 109.634 8.55949 110.036 8.68221C110.438 8.80493 110.851 8.94129 111.273 9.09128C111.696 9.23445 112.109 9.4049 112.511 9.60261C112.913 9.80032 113.271 10.0492 113.585 10.3492C113.905 10.6491 114.161 11.0173 114.352 11.4536C114.549 11.8831 114.648 12.4081 114.648 13.0285C114.648 13.7035 114.529 14.3375 114.29 14.9307C114.058 15.517 113.721 16.0317 113.278 16.4749C112.835 16.9112 112.286 17.2555 111.631 17.5078C110.984 17.76 110.247 17.8862 109.422 17.8862C108.952 17.8862 108.482 17.8384 108.011 17.743C107.547 17.6476 107.098 17.5146 106.661 17.3442C106.232 17.1737 105.826 16.9692 105.444 16.7306C105.062 16.4919 104.728 16.2261 104.442 15.9329L105.342 14.4807C105.417 14.3716 105.516 14.283 105.639 14.2148C105.761 14.1398 105.891 14.1023 106.027 14.1023C106.211 14.1023 106.406 14.1705 106.61 14.3069C106.815 14.4432 107.05 14.5932 107.316 14.7568C107.582 14.9205 107.888 15.0704 108.236 15.2068C108.591 15.3432 109.013 15.4113 109.504 15.4113C110.22 15.4113 110.772 15.2477 111.161 14.9205C111.556 14.5932 111.754 14.1057 111.754 13.458C111.754 13.0831 111.655 12.7797 111.457 12.5479C111.267 12.3161 111.014 12.1218 110.701 11.965C110.387 11.8082 110.029 11.6752 109.627 11.5661C109.225 11.4502 108.812 11.3241 108.389 11.1877C107.967 11.0514 107.554 10.8878 107.152 10.6969C106.75 10.506 106.392 10.2537 106.078 9.94009C105.765 9.62647 105.509 9.23786 105.311 8.77425C105.12 8.31065 105.025 7.73455 105.025 7.04595C105.025 6.49372 105.134 5.95852 105.352 5.44037C105.57 4.92223 105.891 4.46203 106.313 4.05978C106.736 3.65753 107.254 3.33369 107.868 3.08825C108.488 2.84281 109.197 2.72009 109.995 2.72009C110.888 2.72009 111.713 2.85986 112.47 3.13938C113.233 3.41209 113.878 3.79389 114.403 4.28477L113.646 5.72672Z" fill="white"/>
<path d="M46.1066 26.8214C46.5632 26.8214 46.9641 26.7657 47.3093 26.6544C47.6601 26.543 47.9525 26.3871 48.1864 26.1866C48.4202 25.9806 48.5956 25.7383 48.7126 25.4599C48.8295 25.1759 48.888 24.8641 48.888 24.5244C48.888 23.8339 48.6597 23.3133 48.2031 22.9625C47.752 22.6117 47.0727 22.4363 46.165 22.4363H44.4861V26.8214H46.1066ZM51.7028 33.0358H50.1158C49.7984 33.0358 49.5673 32.9105 49.4225 32.6599L46.4574 28.5003C46.3627 28.3611 46.2597 28.2636 46.1483 28.2079C46.0369 28.1467 45.8699 28.1161 45.6472 28.1161H44.4861V33.0358H42.707V21.0414H46.165C46.939 21.0414 47.6045 21.1221 48.1613 21.2836C48.7237 21.4395 49.1859 21.665 49.5478 21.9602C49.9154 22.2497 50.1854 22.6005 50.358 23.0126C50.5362 23.4247 50.6253 23.8868 50.6253 24.3991C50.6253 24.8168 50.5613 25.2093 50.4332 25.5769C50.3051 25.9444 50.1158 26.2757 49.8652 26.5708C49.6202 26.8604 49.3195 27.111 48.9632 27.3226C48.6068 27.5342 48.2031 27.6956 47.752 27.807C47.9748 27.9407 48.1669 28.1272 48.3284 28.3666L51.7028 33.0358Z" fill="white"/>
<path d="M57.9783 27.8488C57.9783 27.5258 57.9309 27.2279 57.8363 26.955C57.7472 26.6822 57.6135 26.4455 57.4353 26.2451C57.2571 26.0446 57.04 25.8887 56.7838 25.7773C56.5277 25.666 56.2326 25.6103 55.8985 25.6103C55.2135 25.6103 54.6734 25.808 54.278 26.2033C53.8882 26.5987 53.6405 27.1472 53.5347 27.8488H57.9783ZM59.323 31.8246C59.1226 32.0585 58.8915 32.2618 58.6298 32.4344C58.368 32.6014 58.0896 32.7379 57.7945 32.8437C57.4994 32.9495 57.1931 33.0274 56.8757 33.0775C56.5639 33.1276 56.2548 33.1527 55.9486 33.1527C55.3639 33.1527 54.821 33.0553 54.3198 32.8604C53.8242 32.6599 53.3927 32.3703 53.0251 31.9917C52.6632 31.6075 52.3792 31.1341 52.1732 30.5717C51.9727 30.0038 51.8725 29.3523 51.8725 28.6172C51.8725 28.027 51.9644 27.4785 52.1481 26.9718C52.3319 26.4595 52.5936 26.014 52.9333 25.6353C53.2785 25.2567 53.6989 24.9588 54.1945 24.7416C54.6901 24.5244 55.2469 24.4158 55.865 24.4158C56.3829 24.4158 56.859 24.5022 57.2933 24.6748C57.7332 24.8418 58.1119 25.0868 58.4293 25.4098C58.7467 25.7328 58.9945 26.1309 59.1727 26.6042C59.3564 27.0776 59.4483 27.6177 59.4483 28.2246C59.4483 28.4752 59.4205 28.6451 59.3648 28.7342C59.3091 28.8177 59.2061 28.8594 59.0557 28.8594H53.4929C53.5096 29.3662 53.582 29.8089 53.7101 30.1875C53.8381 30.5606 54.0135 30.8724 54.2363 31.123C54.4646 31.3736 54.7346 31.5601 55.0465 31.6826C55.3583 31.8051 55.7063 31.8664 56.0906 31.8664C56.4525 31.8664 56.7643 31.8246 57.0261 31.7411C57.2933 31.6576 57.5216 31.5685 57.711 31.4738C57.9059 31.3736 58.0674 31.2817 58.1954 31.1982C58.3291 31.1147 58.446 31.0729 58.5462 31.0729C58.6799 31.0729 58.7829 31.123 58.8553 31.2232L59.323 31.8246Z" fill="white"/>
<path d="M66.2022 26.0112C66.1577 26.0836 66.1103 26.1365 66.0602 26.1699C66.0101 26.1977 65.9461 26.2117 65.8681 26.2117C65.779 26.2117 65.6788 26.181 65.5674 26.1198C65.4616 26.0585 65.3307 25.9917 65.1748 25.9193C65.0245 25.8469 64.8463 25.7801 64.6403 25.7189C64.4342 25.6576 64.1892 25.627 63.9052 25.627C63.6714 25.627 63.457 25.6576 63.2621 25.7189C63.0728 25.7745 62.9113 25.8553 62.7776 25.9611C62.644 26.0613 62.541 26.1838 62.4686 26.3286C62.3962 26.4678 62.36 26.6182 62.36 26.7796C62.36 26.9912 62.4212 27.1666 62.5438 27.3059C62.6718 27.4451 62.8361 27.5648 63.0366 27.665C63.2426 27.7653 63.4737 27.8571 63.7298 27.9407C63.9915 28.0186 64.256 28.1021 64.5233 28.1912C64.7962 28.2803 65.0607 28.3833 65.3168 28.5003C65.5785 28.6117 65.8096 28.7536 66.0101 28.9263C66.2161 29.0933 66.3804 29.2966 66.5029 29.536C66.631 29.7755 66.695 30.0678 66.695 30.413C66.695 30.8084 66.6226 31.1759 66.4778 31.5156C66.3386 31.8497 66.1298 32.1392 65.8514 32.3843C65.5785 32.6293 65.2389 32.8214 64.8324 32.9606C64.4259 33.0998 63.9609 33.1694 63.4375 33.1694C62.8528 33.1694 62.3127 33.072 61.8171 32.8771C61.3215 32.6822 60.9066 32.4344 60.5725 32.1337L60.9568 31.5072C61.0013 31.4293 61.057 31.3708 61.1238 31.3318C61.1906 31.2873 61.2797 31.265 61.3911 31.265C61.4969 31.265 61.6055 31.304 61.7168 31.3819C61.8282 31.4599 61.9619 31.5462 62.1178 31.6409C62.2737 31.73 62.463 31.8135 62.6857 31.8915C62.9085 31.9638 63.1869 32 63.521 32C63.7994 32 64.0417 31.9666 64.2477 31.8998C64.4537 31.8274 64.6236 31.7328 64.7572 31.6158C64.8964 31.4933 64.9994 31.3541 65.0662 31.1982C65.1331 31.0423 65.1665 30.878 65.1665 30.7054C65.1665 30.4826 65.1024 30.2989 64.9744 30.1541C64.8519 30.0038 64.6876 29.8757 64.4816 29.7699C64.2811 29.6641 64.05 29.5722 63.7883 29.4942C63.5266 29.4163 63.2593 29.3328 62.9864 29.2437C62.7136 29.1546 62.4463 29.0516 62.1846 28.9346C61.9229 28.8177 61.689 28.6701 61.483 28.4919C61.2825 28.3137 61.1182 28.0966 60.9902 27.8404C60.8677 27.5843 60.8064 27.2724 60.8064 26.9049C60.8064 26.5764 60.8732 26.2618 61.0069 25.9611C61.1461 25.6604 61.3438 25.3959 61.5999 25.1676C61.8616 24.9393 62.1818 24.7583 62.5605 24.6247C62.9447 24.4855 63.3818 24.4158 63.8718 24.4158C64.4342 24.4158 64.941 24.5049 65.392 24.6831C65.8486 24.8613 66.2384 25.1063 66.5614 25.4182L66.2022 26.0112Z" fill="white"/>
<path d="M72.0753 24.4158C72.6989 24.4158 73.2614 24.5189 73.7625 24.7249C74.2692 24.9254 74.698 25.2177 75.0488 25.6019C75.4052 25.9806 75.6781 26.44 75.8674 26.9801C76.0567 27.5147 76.1514 28.1161 76.1514 28.7843C76.1514 29.4525 76.0567 30.0567 75.8674 30.5968C75.6781 31.1369 75.4052 31.5963 75.0488 31.975C74.698 32.3536 74.2692 32.646 73.7625 32.852C73.2614 33.0525 72.6989 33.1527 72.0753 33.1527C71.446 33.1527 70.8781 33.0525 70.3713 32.852C69.8702 32.646 69.4414 32.3536 69.085 31.975C68.7287 31.5963 68.453 31.1369 68.2581 30.5968C68.0688 30.0567 67.9741 29.4525 67.9741 28.7843C67.9741 28.1161 68.0688 27.5147 68.2581 26.9801C68.453 26.44 68.7287 25.9806 69.085 25.6019C69.4414 25.2177 69.8702 24.9254 70.3713 24.7249C70.8781 24.5189 71.446 24.4158 72.0753 24.4158ZM72.0753 31.8831C72.8771 31.8831 73.4757 31.613 73.8711 31.0729C74.2665 30.5328 74.4641 29.7727 74.4641 28.7926C74.4641 27.8126 74.2665 27.0525 73.8711 26.5124C73.4757 25.9667 72.8771 25.6938 72.0753 25.6938C71.2623 25.6938 70.6553 25.9667 70.2544 26.5124C69.859 27.0525 69.6614 27.8126 69.6614 28.7926C69.6614 29.7727 69.859 30.5328 70.2544 31.0729C70.6553 31.613 71.2623 31.8831 72.0753 31.8831Z" fill="white"/>
<path d="M85.0275 24.5495V33.0358H84.0502C83.8275 33.0358 83.6827 32.9272 83.6159 32.71L83.4989 31.858C83.3152 32.0529 83.1231 32.2311 82.9226 32.3926C82.7221 32.5541 82.5078 32.6933 82.2795 32.8102C82.0512 32.9216 81.8089 33.0079 81.5528 33.0692C81.2966 33.136 81.021 33.1694 80.7259 33.1694C80.2581 33.1694 79.8461 33.0914 79.4897 32.9355C79.1389 32.7796 78.8437 32.5624 78.6043 32.284C78.3649 32 78.1839 31.6604 78.0614 31.265C77.9389 30.8696 77.8776 30.4325 77.8776 29.9536V24.5495H79.5147V29.9536C79.5147 30.5606 79.6539 31.0339 79.9324 31.3736C80.2108 31.7077 80.6368 31.8747 81.2103 31.8747C81.628 31.8747 82.0177 31.7773 82.3797 31.5824C82.7416 31.3819 83.0813 31.1091 83.3987 30.7638V24.5495H85.0275Z" fill="white"/>
<path d="M88.8378 26.1783C89.1107 25.6214 89.4392 25.1843 89.8235 24.8669C90.2077 24.5495 90.6699 24.3908 91.21 24.3908C91.3937 24.3908 91.5664 24.4131 91.7279 24.4576C91.8949 24.4966 92.0397 24.5578 92.1622 24.6414L92.0536 25.8692C92.0146 26.0196 91.9227 26.0947 91.778 26.0947C91.7 26.0947 91.5831 26.0808 91.4272 26.053C91.2712 26.0196 91.1042 26.0028 90.926 26.0028C90.6643 26.0028 90.4332 26.0418 90.2327 26.1198C90.0323 26.1922 89.8513 26.3035 89.6898 26.4539C89.5339 26.5987 89.3947 26.7796 89.2722 26.9968C89.1497 27.2084 89.0355 27.4506 88.9297 27.7235V33.0358H87.301V24.5495H88.2365C88.4146 24.5495 88.5344 24.5829 88.5956 24.6497C88.6624 24.711 88.7098 24.8223 88.7376 24.9838L88.8378 26.1783Z" fill="white"/>
<path d="M99.0557 26.1365C99.0056 26.1977 98.9555 26.2479 98.9054 26.2868C98.8608 26.3202 98.794 26.337 98.7049 26.337C98.6158 26.337 98.5212 26.3035 98.4209 26.2367C98.3263 26.1643 98.2038 26.0892 98.0534 26.0112C97.9086 25.9277 97.7304 25.8525 97.5188 25.7857C97.3128 25.7133 97.0567 25.6771 96.7504 25.6771C96.3495 25.6771 95.9959 25.7495 95.6896 25.8943C95.3833 26.039 95.1272 26.2451 94.9212 26.5124C94.7207 26.7796 94.5676 27.1054 94.4618 27.4896C94.356 27.8738 94.3031 28.3054 94.3031 28.7843C94.3031 29.2799 94.3588 29.7226 94.4701 30.1123C94.5815 30.4966 94.7402 30.8223 94.9462 31.0896C95.1523 31.3513 95.4028 31.5518 95.698 31.691C95.9931 31.8246 96.3216 31.8915 96.6836 31.8915C97.0344 31.8915 97.3239 31.8497 97.5522 31.7662C97.7806 31.6771 97.9699 31.5824 98.1202 31.4822C98.2706 31.3819 98.3959 31.2901 98.4961 31.2065C98.5963 31.1174 98.6993 31.0729 98.8051 31.0729C98.9388 31.0729 99.0418 31.123 99.1142 31.2232L99.5819 31.8246C99.387 32.0641 99.1671 32.2673 98.9221 32.4344C98.6826 32.6014 98.4265 32.7379 98.1536 32.8437C97.8808 32.9495 97.594 33.0274 97.2933 33.0775C96.9982 33.1276 96.6975 33.1527 96.3912 33.1527C95.8622 33.1527 95.3666 33.0553 94.9045 32.8604C94.4479 32.6655 94.0497 32.3815 93.71 32.0084C93.3759 31.6353 93.1114 31.1787 92.9165 30.6386C92.7216 30.0929 92.6242 29.4748 92.6242 28.7843C92.6242 28.155 92.7105 27.5731 92.8831 27.0386C93.0613 26.504 93.3202 26.0446 93.6599 25.6604C94.0052 25.2706 94.4284 24.9671 94.9295 24.75C95.4307 24.5272 96.0042 24.4158 96.6502 24.4158C97.2571 24.4158 97.7917 24.5133 98.2539 24.7082C98.716 24.9031 99.1281 25.1787 99.4901 25.5351L99.0557 26.1365Z" fill="white"/>
<path d="M106.577 27.8488C106.577 27.5258 106.53 27.2279 106.435 26.955C106.346 26.6822 106.212 26.4455 106.034 26.2451C105.856 26.0446 105.639 25.8887 105.382 25.7773C105.126 25.666 104.831 25.6103 104.497 25.6103C103.812 25.6103 103.272 25.808 102.877 26.2033C102.487 26.5987 102.239 27.1472 102.133 27.8488H106.577ZM107.922 31.8246C107.721 32.0585 107.49 32.2618 107.228 32.4344C106.967 32.6014 106.688 32.7379 106.393 32.8437C106.098 32.9495 105.792 33.0274 105.474 33.0775C105.162 33.1276 104.853 33.1527 104.547 33.1527C103.963 33.1527 103.42 33.0553 102.918 32.8604C102.423 32.6599 101.991 32.3703 101.624 31.9917C101.262 31.6075 100.978 31.1341 100.772 30.5717C100.571 30.0038 100.471 29.3523 100.471 28.6172C100.471 28.027 100.563 27.4785 100.747 26.9718C100.931 26.4595 101.192 26.014 101.532 25.6353C101.877 25.2567 102.298 24.9588 102.793 24.7416C103.289 24.5244 103.846 24.4158 104.464 24.4158C104.982 24.4158 105.458 24.5022 105.892 24.6748C106.332 24.8418 106.711 25.0868 107.028 25.4098C107.345 25.7328 107.593 26.1309 107.771 26.6042C107.955 27.0776 108.047 27.6177 108.047 28.2246C108.047 28.4752 108.019 28.6451 107.963 28.7342C107.908 28.8177 107.805 28.8594 107.654 28.8594H102.092C102.108 29.3662 102.181 29.8089 102.309 30.1875C102.437 30.5606 102.612 30.8724 102.835 31.123C103.063 31.3736 103.333 31.5601 103.645 31.6826C103.957 31.8051 104.305 31.8664 104.689 31.8664C105.051 31.8664 105.363 31.8246 105.625 31.7411C105.892 31.6576 106.12 31.5685 106.31 31.4738C106.504 31.3736 106.666 31.2817 106.794 31.1982C106.928 31.1147 107.045 31.0729 107.145 31.0729C107.278 31.0729 107.382 31.123 107.454 31.2232L107.922 31.8246Z" fill="white"/>
<path d="M114.801 26.0112C114.756 26.0836 114.709 26.1365 114.659 26.1699C114.609 26.1977 114.545 26.2117 114.467 26.2117C114.378 26.2117 114.277 26.181 114.166 26.1198C114.06 26.0585 113.929 25.9917 113.773 25.9193C113.623 25.8469 113.445 25.7801 113.239 25.7189C113.033 25.6576 112.788 25.627 112.504 25.627C112.27 25.627 112.056 25.6576 111.861 25.7189C111.671 25.7745 111.51 25.8553 111.376 25.9611C111.243 26.0613 111.14 26.1838 111.067 26.3286C110.995 26.4678 110.959 26.6182 110.959 26.7796C110.959 26.9912 111.02 27.1666 111.142 27.3059C111.27 27.4451 111.435 27.5648 111.635 27.665C111.841 27.7653 112.072 27.8571 112.328 27.9407C112.59 28.0186 112.855 28.1021 113.122 28.1912C113.395 28.2803 113.659 28.3833 113.915 28.5003C114.177 28.6117 114.408 28.7536 114.609 28.9263C114.815 29.0933 114.979 29.2966 115.102 29.536C115.23 29.7755 115.294 30.0678 115.294 30.413C115.294 30.8084 115.221 31.1759 115.076 31.5156C114.937 31.8497 114.728 32.1392 114.45 32.3843C114.177 32.6293 113.837 32.8214 113.431 32.9606C113.025 33.0998 112.56 33.1694 112.036 33.1694C111.451 33.1694 110.911 33.072 110.416 32.8771C109.92 32.6822 109.505 32.4344 109.171 32.1337L109.555 31.5072C109.6 31.4293 109.656 31.3708 109.722 31.3318C109.789 31.2873 109.878 31.265 109.99 31.265C110.096 31.265 110.204 31.304 110.315 31.3819C110.427 31.4599 110.56 31.5462 110.716 31.6409C110.872 31.73 111.062 31.8135 111.284 31.8915C111.507 31.9638 111.786 32 112.12 32C112.398 32 112.64 31.9666 112.846 31.8998C113.052 31.8274 113.222 31.7328 113.356 31.6158C113.495 31.4933 113.598 31.3541 113.665 31.1982C113.732 31.0423 113.765 30.878 113.765 30.7054C113.765 30.4826 113.701 30.2989 113.573 30.1541C113.45 30.0038 113.286 29.8757 113.08 29.7699C112.88 29.6641 112.649 29.5722 112.387 29.4942C112.125 29.4163 111.858 29.3328 111.585 29.2437C111.312 29.1546 111.045 29.0516 110.783 28.9346C110.521 28.8177 110.288 28.6701 110.082 28.4919C109.881 28.3137 109.717 28.0966 109.589 27.8404C109.466 27.5843 109.405 27.2724 109.405 26.9049C109.405 26.5764 109.472 26.2618 109.605 25.9611C109.745 25.6604 109.942 25.3959 110.199 25.1676C110.46 24.9393 110.78 24.7583 111.159 24.6247C111.543 24.4855 111.98 24.4158 112.47 24.4158C113.033 24.4158 113.54 24.5049 113.991 24.6831C114.447 24.8613 114.837 25.1063 115.16 25.4182L114.801 26.0112Z" fill="white"/>
</svg>
