<?xml version="1.0" standalone="no"?>
<!DOCTYPE svg PUBLIC "-//W3C//DTD SVG 20010904//EN"
 "http://www.w3.org/TR/2001/REC-SVG-20010904/DTD/svg10.dtd">
<svg version="1.0" xmlns="http://www.w3.org/2000/svg"
 width="1000.000000pt" height="1000.000000pt" viewBox="0 0 1000.000000 1000.000000"
 preserveAspectRatio="xMidYMid meet">
<metadata>
Created by potrace 1.14, written by Peter Selinger 2001-2017
</metadata>
<g transform="translate(0.000000,1000.000000) scale(0.100000,-0.100000)"
fill="#000000" stroke="none">
<path d="M4738 9995 c-2 -1 -52 -6 -113 -9 -60 -4 -119 -9 -130 -11 -11 -2
-47 -7 -80 -10 -33 -3 -69 -7 -81 -9 -12 -2 -45 -7 -74 -11 -29 -4 -62 -9 -74
-11 -12 -2 -34 -6 -51 -9 -16 -3 -41 -7 -55 -9 -14 -3 -70 -14 -125 -26 -55
-12 -116 -25 -135 -30 -54 -11 -182 -47 -325 -92 -872 -272 -1696 -815 -2285
-1508 -30 -36 -57 -67 -60 -70 -9 -8 -143 -181 -191 -245 -212 -287 -421 -655
-565 -997 -33 -79 -46 -113 -43 -113 1 0 -3 -11 -11 -24 -43 -82 -166 -479
-214 -692 -35 -157 -67 -334 -80 -439 -22 -174 -26 -209 -33 -314 -15 -201 -7
-759 11 -866 3 -14 8 -52 11 -85 6 -65 32 -245 40 -285 3 -14 7 -36 10 -50 30
-197 183 -736 254 -895 5 -11 32 -76 62 -145 117 -278 266 -554 432 -805 54
-81 214 -301 241 -332 6 -7 16 -18 21 -25 154 -199 417 -473 635 -660 30 -26
66 -57 80 -69 109 -94 316 -243 566 -407 10 -7 27 -15 37 -18 9 -4 17 -10 17
-15 0 -5 5 -9 10 -9 6 0 27 -10 48 -23 160 -101 506 -265 762 -362 195 -75
534 -172 725 -210 17 -3 41 -8 55 -10 97 -19 192 -35 235 -40 28 -4 57 -8 65
-10 8 -2 47 -7 85 -11 39 -3 79 -8 90 -10 135 -25 840 -25 997 1 13 2 50 6 83
9 33 4 71 8 85 10 14 3 48 7 75 11 170 21 560 111 763 176 302 97 629 237 892
382 30 17 71 39 90 50 187 103 522 336 701 487 248 210 490 451 659 660 25 30
47 57 50 60 35 31 310 425 387 555 95 160 237 433 288 555 15 36 35 83 45 105
19 42 108 278 133 355 43 129 136 486 152 580 3 19 10 58 15 85 10 54 15 81
26 160 3 28 8 59 10 70 2 11 7 47 10 80 3 33 7 71 10 85 26 162 26 777 0 1000
-3 19 -7 58 -10 85 -12 107 -17 142 -51 340 -39 230 -169 685 -254 890 -95
229 -205 464 -271 580 -13 22 -37 65 -53 95 -292 528 -804 1109 -1317 1495
-36 27 -81 61 -100 75 -64 48 -293 197 -400 260 -261 154 -688 345 -985 440
-129 41 -417 118 -465 125 -14 1 -43 8 -65 14 -71 19 -352 61 -500 76 -39 3
-90 9 -115 11 -50 6 -646 14 -652 9z m557 -1609 c17 -2 62 -7 100 -11 39 -4
77 -9 85 -10 8 -1 35 -6 60 -9 536 -82 1080 -317 1535 -665 33 -25 65 -50 71
-56 7 -5 31 -26 55 -45 80 -63 344 -333 431 -440 164 -202 310 -432 423 -663
65 -134 158 -360 170 -413 2 -10 12 -39 20 -64 38 -103 106 -413 121 -545 3
-22 7 -50 9 -63 30 -178 25 -666 -10 -877 -2 -16 -7 -48 -10 -70 -3 -22 -10
-62 -16 -90 -5 -27 -11 -60 -14 -73 -23 -122 -120 -438 -177 -576 -54 -132
-227 -470 -236 -461 -2 2 -10 40 -18 83 -16 96 -65 244 -106 327 -62 122 -172
275 -247 343 -14 13 -42 38 -61 55 -128 117 -348 232 -522 272 -122 28 -168
30 -588 30 l-425 0 -106 -27 c-142 -36 -264 -87 -383 -161 -107 -67 -247 -192
-317 -284 -24 -32 -47 -59 -51 -61 -5 -2 -8 -10 -8 -17 0 -7 -3 -15 -7 -17
-22 -9 -115 -199 -143 -290 -57 -186 -62 -237 -62 -651 l0 -347 -26 16 c-15 8
-90 59 -167 112 l-140 97 0 295 c1 287 5 367 27 460 16 71 48 170 74 228 13
29 24 55 24 57 0 12 95 163 134 213 51 67 132 151 199 207 l48 40 -46 90 c-66
128 -125 206 -239 320 -143 143 -292 236 -476 298 -168 57 -196 60 -619 64
-422 5 -492 0 -659 -43 -113 -29 -287 -111 -387 -182 -223 -158 -395 -393
-475 -650 -49 -158 -57 -228 -58 -555 0 -165 -2 -301 -5 -303 -5 -5 -114 195
-161 296 -96 207 -197 507 -232 683 -2 10 -5 26 -8 35 -6 19 -12 50 -26 137
-9 56 -14 88 -24 168 -21 145 -27 522 -13 682 13 144 16 172 21 200 3 16 8 49
12 74 8 54 7 53 29 156 187 896 740 1682 1539 2187 101 64 385 207 516 261
163 68 384 135 565 172 39 8 79 16 90 18 71 15 212 33 335 43 47 4 86 8 88 9
5 4 455 -4 487 -9z"/>
<path d="M3445 6850 c-78 -16 -90 -19 -120 -28 -193 -62 -375 -221 -462 -405
-51 -107 -76 -221 -75 -337 0 -130 19 -211 75 -330 92 -196 251 -338 452 -406
108 -36 122 -38 255 -38 170 1 288 38 433 136 150 101 257 253 309 435 31 111
31 296 0 406 -77 269 -277 471 -542 547 -81 23 -255 34 -325 20z"/>
<path d="M6378 6205 c-1 -1 -30 -5 -63 -9 -157 -15 -277 -63 -405 -162 -189
-145 -302 -384 -295 -624 3 -101 10 -143 37 -230 50 -156 167 -310 303 -402
228 -154 531 -173 780 -51 274 135 441 413 431 718 -4 124 -26 217 -78 320
-122 246 -335 396 -608 430 -30 4 -65 8 -77 10 -12 2 -23 2 -25 0z"/>
</g>
</svg>
